<?xml version="1.0" encoding="UTF-8"?>
<svg version="1.1" xmlns="http://www.w3.org/2000/svg" width="546" height="594">
<path d="M0 0 C180.18 0 360.36 0 546 0 C546 196.02 546 392.04 546 594 C365.82 594 185.64 594 0 594 C0 397.98 0 201.96 0 0 Z " fill="#FEFEFE" transform="translate(0,0)"/>
<path d="M0 0 C27.23633921 -0.07044609 54.47266454 -0.12316102 81.70907688 -0.15543652 C94.35873545 -0.17082869 107.00833703 -0.1917697 119.65795898 -0.22631836 C130.6983855 -0.25645731 141.73877069 -0.27563038 152.77923721 -0.28226548 C158.61142249 -0.28613677 164.44348969 -0.29506997 170.27563667 -0.31719017 C215.76128451 -0.48284148 262.74223546 0.15783809 305 19 C306.81757812 19.76763672 306.81757812 19.76763672 308.671875 20.55078125 C334.49837655 31.79682829 354.55425173 52.6201205 364.97265625 78.71875 C366.8473152 84.70625387 367.82142032 90.86589097 368.71777344 97.06640625 C368.97303275 98.8152417 369.26559607 100.55853248 369.5625 102.30078125 C372.85116603 130.10762706 367.57556081 159.65649163 350.1875 182.1875 C348.81359694 183.81048853 347.41721161 185.41468847 346 187 C345.27296875 187.82113281 344.5459375 188.64226562 343.796875 189.48828125 C330.13417744 204.03317286 310.92648948 214.85736672 291 217 C292.54107422 217.27263672 292.54107422 217.27263672 294.11328125 217.55078125 C318.69087339 221.96962626 344.07714805 230.00205886 363 247 C363.85078125 247.74378906 364.7015625 248.48757813 365.578125 249.25390625 C387.87299845 268.97886165 404.61993547 295.63307741 407 326 C408.64201442 363.52788725 402.39296068 396.08355931 376.94140625 424.8671875 C361.20819322 442.01456329 339.59986765 453.14759609 318 461 C317.19175781 461.32742188 316.38351562 461.65484375 315.55078125 461.9921875 C306.82249957 465.43475584 297.6794147 467.32769287 288.54785156 469.37744141 C286.70427115 469.82791382 284.87993355 470.35968436 283.07299805 470.93994141 C257.57759847 478.23133861 229.12668315 476.51341244 202.94061279 476.2746582 C197.85045297 476.2328635 192.76020579 476.21528835 187.66992188 476.1953125 C177.77972932 476.15311247 167.88990812 476.08535502 158 476 C157.49130173 472.3344862 156.99463592 468.66743573 156.5 465 C156.35691406 463.97003906 156.21382812 462.94007813 156.06640625 461.87890625 C155.30596126 456.19367468 154.83455766 450.73533461 155 445 C155.55693542 444.99635437 156.11387085 444.99270874 156.68768311 444.98895264 C162.59524201 444.94645653 168.50207141 444.87666935 174.40917969 444.79248047 C176.60051094 444.76461642 178.79193624 444.74323418 180.98339844 444.72900391 C210.42338742 444.52662085 238.47568581 439.46930997 261 419 C267.02032687 412.69170533 271.8953212 405.68007007 276 398 C276.38647705 397.29117676 276.7729541 396.58235352 277.17114258 395.85205078 C280.39608202 389.7240004 282.47599251 383.69597998 284.1875 377 C284.43435547 376.07960938 284.68121094 375.15921875 284.93554688 374.2109375 C285.65645062 371.48111534 286.33247217 368.74329961 287 366 C287.20085205 365.25443848 287.4017041 364.50887695 287.60864258 363.74072266 C289.50754383 355.88944747 289.3367996 347.91851983 289.31567383 339.88916016 C289.31253271 337.40091305 289.3359695 334.91388054 289.36132812 332.42578125 C289.40260839 321.91829005 288.3386643 312.25262534 286 302 C285.85495026 301.34406357 285.70990051 300.68812714 285.56045532 300.01231384 C281.26797691 280.62192142 270.92126384 260.28084256 254 249 C254 248.34 254 247.68 254 247 C252.89591797 246.58814453 252.89591797 246.58814453 251.76953125 246.16796875 C249.18003083 245.07592274 247.03928972 243.83719493 244.6875 242.3125 C232.48243084 234.92807206 219.92113523 230.77023595 206 228 C205.03707031 227.78601563 204.07414063 227.57203125 203.08203125 227.3515625 C194.81630209 225.62588833 186.41340549 225.37480587 178 225 C178 223.02 178 221.04 178 219 C179.01835937 218.91363281 180.03671875 218.82726562 181.0859375 218.73828125 C202.26119343 216.72978128 221.23446781 211.06999401 237 196 C238.74007921 193.88290363 240.33229544 191.75350689 241.84375 189.46875 C242.2253125 188.9840625 242.606875 188.499375 243 188 C243.66 188 244.32 188 245 188 C245.99 185.03 245.99 185.03 247 182 C247.66 182 248.32 182 249 182 C249.103125 181.319375 249.20625 180.63875 249.3125 179.9375 C249.98011367 177.08496888 251.02939552 174.62738621 252.19555664 171.95141602 C253.53633154 168.69896874 254.5570101 165.36854977 255.5625 162 C255.87477539 161.01966797 255.87477539 161.01966797 256.19335938 160.01953125 C259.82096621 147.89718366 260.36546234 135.26012805 260.3125 122.6875 C260.31134186 122.01733856 260.31018372 121.34717712 260.30899048 120.65670776 C260.26481598 107.67692743 259.54248009 95.15164746 254.76977539 82.96655273 C254.04402231 81.11246423 253.37550158 79.23626507 252.7109375 77.359375 C246.29747535 60.03177551 234.92320064 46.99535988 218.23046875 38.79296875 C210.85723527 35.46875322 202.88119171 33.69333351 195 32 C193.88709595 31.73413086 193.88709595 31.73413086 192.75170898 31.46289062 C189.12557832 30.85290538 185.52291181 30.76644604 181.85546875 30.68359375 C181.08568192 30.66281265 180.31589508 30.64203156 179.52278137 30.62062073 C177.07777333 30.55553951 174.63266317 30.49643409 172.1875 30.4375 C170.52407823 30.39427532 168.86066656 30.35065979 167.19726562 30.30664062 C163.13161329 30.19916952 159.06587711 30.09978915 155 30 C155 35.94 155 41.88 155 48 C153.42992187 47.93039063 151.85984375 47.86078125 150.2421875 47.7890625 C134.49238389 47.29488215 123.55970299 48.07993704 111.125 58.6875 C105.55059382 64.12996757 99.50158476 70.49524572 97 78 C96.34 78 95.68 78 95 78 C94.71769531 78.72316406 94.43539062 79.44632812 94.14453125 80.19140625 C93.07279309 82.82137123 91.90161482 85.37085335 90.6875 87.9375 C84.87702421 100.82308454 81.70203904 113.17001101 79.4848175 127.07778931 C79.17413961 128.95038314 78.8407342 130.81943213 78.47857666 132.68275452 C77.0273857 140.39948801 76.79202378 147.77829893 76.90234375 155.61328125 C76.90640367 158.18554441 76.9082933 160.75781176 76.90820312 163.33007812 C76.91633436 167.3377936 76.93406036 171.34362239 76.99633789 175.35083008 C77.05529705 179.25122644 77.0420793 183.14994848 77.02734375 187.05078125 C77.05819565 188.2456868 77.08904755 189.44059235 77.12083435 190.67170715 C77.02732852 198.81321874 77.02732852 198.81321874 74.03930664 202.26501465 C71.7684659 204.04099654 69.4762303 205.5300483 67 207 C65.92103156 207.84869357 64.85821486 208.71873753 63.8203125 209.6171875 C62.93085938 210.36226562 62.04140625 211.10734375 61.125 211.875 C60.22007813 212.63554687 59.31515625 213.39609375 58.3828125 214.1796875 C56 216 56 216 53 217 C52.99853344 216.12038762 52.99706688 215.24077524 52.99555588 214.33450794 C52.95843801 192.89103065 52.89935733 171.44771079 52.81609726 150.00436115 C52.77635734 139.63433397 52.74393924 129.26438213 52.72900391 118.89428711 C52.71596119 109.85138874 52.68892984 100.80865648 52.64538693 91.76585168 C52.62283095 86.9816474 52.60708579 82.19764755 52.60811615 77.41338539 C52.60886624 72.9013509 52.59077644 68.3897673 52.55883217 63.87784958 C52.55038094 62.23045982 52.5485504 60.5830192 52.55419731 58.93561745 C52.59044063 46.72683448 51.60903104 35.05479101 44 25 C44 24.34 44 23.68 44 23 C43.34 23 42.68 23 42 23 C41.319375 22.29875 40.63875 21.5975 39.9375 20.875 C28.97097214 9.65417584 15.02519579 7.41563474 0 7 C0 4.69 0 2.38 0 0 Z " fill="#292929" transform="translate(67,34)"/>
<path d="M0 0 C7.21500042 4.38558849 12.17050328 8.98730595 15.1875 16.9375 C15.70957031 18.30068359 15.70957031 18.30068359 16.2421875 19.69140625 C20.52748063 31.68709907 21.55331815 43.31576828 21.5 56 C21.49850952 56.67870148 21.49701904 57.35740295 21.4954834 58.05667114 C21.45145576 69.24478428 20.63023891 80.00122493 18.1875 90.9375 C18.04296387 91.61731934 17.89842773 92.29713867 17.74951172 92.99755859 C14.1731925 109.58803612 8.26843223 125.03323593 0.1875 139.9375 C-0.30492187 140.85015625 -0.79734375 141.7628125 -1.3046875 142.703125 C-8.56498172 155.41889454 -20.40785405 173.18872754 -35.11328125 177.6328125 C-35.67402344 177.73335937 -36.23476562 177.83390625 -36.8125 177.9375 C-36.8125 178.9275 -36.8125 179.9175 -36.8125 180.9375 C-37.4725 180.9375 -38.1325 180.9375 -38.8125 180.9375 C-38.4825 182.2575 -38.1525 183.5775 -37.8125 184.9375 C-38.7096875 185.1540625 -38.7096875 185.1540625 -39.625 185.375 C-41.37400404 185.8247439 -43.09927023 186.36642341 -44.8125 186.9375 C-44.8125 185.6175 -44.8125 184.2975 -44.8125 182.9375 C-64.13127198 193.88962346 -64.13127198 193.88962346 -81.00390625 208.20703125 C-82.8125 209.9375 -82.8125 209.9375 -84.8125 209.9375 C-84.8125 210.5975 -84.8125 211.2575 -84.8125 211.9375 C-86.24609375 213.27734375 -86.24609375 213.27734375 -88.25 214.875 C-93.49251315 219.35278803 -97.62719496 224.4793088 -101.8125 229.9375 C-102.23354004 230.4835791 -102.65458008 231.0296582 -103.08837891 231.59228516 C-117.93697565 251.01480478 -123.77464297 271.57242797 -121.8125 295.9375 C-119.03002936 313.11561375 -109.52295413 330.04281974 -95.921875 340.703125 C-83.20550879 349.8410163 -68.37981193 357.1108048 -52.41796875 357.03515625 C-51.21591797 357.03193359 -50.01386719 357.02871094 -48.77539062 357.02539062 C-47.52951172 357.01701172 -46.28363281 357.00863281 -45 357 C-43.73478516 356.99548828 -42.46957031 356.99097656 -41.16601562 356.98632812 C-38.0481568 356.97456262 -34.93032235 356.95662774 -31.8125 356.9375 C-32.1425 348.3575 -32.4725 339.7775 -32.8125 330.9375 C-32.4825 330.9375 -32.1525 330.9375 -31.8125 330.9375 C-31.73733154 331.8821814 -31.73733154 331.8821814 -31.66064453 332.84594727 C-31.42689238 335.73127564 -31.18228233 338.6155873 -30.9375 341.5 C-30.85886719 342.49064453 -30.78023438 343.48128906 -30.69921875 344.50195312 C-30.23322335 349.89674602 -29.52851855 354.7966545 -27.8125 359.9375 C-27.1525 358.9475 -26.4925 357.9575 -25.8125 356.9375 C-22.3475 358.4225 -22.3475 358.4225 -18.8125 359.9375 C-18.8125 359.2775 -18.8125 358.6175 -18.8125 357.9375 C-20.1325 357.9375 -21.4525 357.9375 -22.8125 357.9375 C-22.4825 357.2775 -22.1525 356.6175 -21.8125 355.9375 C-21.214375 356.164375 -20.61625 356.39125 -20 356.625 C-19.278125 356.728125 -18.55625 356.83125 -17.8125 356.9375 C-16.04059091 355.58305699 -16.04059091 355.58305699 -14.8125 353.9375 C-14.1525 354.2675 -13.4925 354.5975 -12.8125 354.9375 C-12.8125 356.2575 -12.8125 357.5775 -12.8125 358.9375 C-12.1525 359.2675 -11.4925 359.5975 -10.8125 359.9375 C-13.4525 360.5975 -16.0925 361.2575 -18.8125 361.9375 C-18.67972656 362.52273438 -18.54695313 363.10796875 -18.41015625 363.7109375 C-17.21609023 369.51566719 -16.62100302 375.21040336 -16.375 381.125 C-16.07070358 388.42811405 -15.24808805 395.57361963 -14.25 402.8125 C-13.22430899 410.51039382 -12.49715412 418.10523539 -12.4375 425.875 C-12.42388428 426.66052246 -12.41026855 427.44604492 -12.39624023 428.25537109 C-12.43482075 433.17359441 -13.33814771 437.24987631 -15.04736328 441.86010742 C-15.83124907 443.98840486 -16.45397521 446.1284229 -17.0625 448.3125 C-20.40443424 458.18326453 -26.6260105 465.67640437 -34.8125 471.9375 C-35.76769531 472.67806641 -35.76769531 472.67806641 -36.7421875 473.43359375 C-48.3512672 481.55031545 -64.50792612 481.38805553 -78.0625 479.375 C-90.56397606 476.30370311 -101.56991131 469.15186705 -108.625 458.4375 C-115.40854551 447.1573446 -117.41463849 436.01863071 -115.8125 422.9375 C-113.30084476 415.19163192 -107.5794844 410.15763754 -100.8125 405.9375 C-95.00259262 403.03254631 -87.85806372 403.03535339 -81.5703125 404.4375 C-72.68397188 407.48029368 -67.35229134 412.80243767 -62.8125 420.9375 C-60.18126582 428.83120254 -61.21513363 437.4189926 -64.6953125 444.859375 C-68.35019078 451.65795976 -74.47850333 456.19682551 -81.859375 458.60546875 C-83.96661775 458.96370002 -85.92637821 459.03560203 -88.0625 459 C-89.91875 458.9690625 -89.91875 458.9690625 -91.8125 458.9375 C-90.90316991 460.21359323 -89.98467147 461.48315553 -89.0625 462.75 C-88.55203125 463.45769531 -88.0415625 464.16539062 -87.515625 464.89453125 C-84.17905964 468.89687915 -80.85183526 470.64114926 -75.8125 471.9375 C-73.1785899 472.14964548 -70.69122288 472.27201347 -68.0625 472.25 C-67.35875244 472.24436035 -66.65500488 472.2387207 -65.92993164 472.23291016 C-57.03949945 472.02698569 -50.58064799 470.46083852 -44.1875 464.14453125 C-42.8125 462.9375 -42.8125 462.9375 -40.8125 462.9375 C-40.54050781 462.36 -40.26851563 461.7825 -39.98828125 461.1875 C-38.81429457 458.94093412 -37.47688933 456.99501337 -36 454.9375 C-27.85917293 442.8158284 -25.42812604 430.17402208 -25.5 415.8125 C-25.50201416 414.70938477 -25.50402832 413.60626953 -25.50610352 412.46972656 C-25.59727145 405.0081497 -26.43653843 398.29435791 -28.078125 391.015625 C-29.75399748 382.83636678 -29.59281477 374.25883677 -29.8125 365.9375 C-30.93978516 366.17726563 -30.93978516 366.17726563 -32.08984375 366.421875 C-45.30188331 368.25187418 -60.13116872 368.22914646 -72.8125 363.9375 C-73.75464355 363.63150879 -73.75464355 363.63150879 -74.71582031 363.31933594 C-88.46704236 358.80135911 -98.93821146 352.18719118 -109.37890625 342.1953125 C-111.59084067 339.93146094 -111.59084067 339.93146094 -113.8125 338.9375 C-114.8477267 337.29248223 -115.84274221 335.62194282 -116.8125 333.9375 C-117.32167969 333.17953125 -117.83085938 332.4215625 -118.35546875 331.640625 C-129.23339204 315.4141741 -136.2310579 297.63069102 -136.8125 277.9375 C-136.83296387 277.27057129 -136.85342773 276.60364258 -136.87451172 275.91650391 C-137.55200277 250.22223604 -133.50590687 228.94021878 -119.8125 206.9375 C-119.19761719 205.92558594 -118.58273438 204.91367187 -117.94921875 203.87109375 C-106.01289893 185.08480881 -90.30333128 168.60303635 -72.8125 154.9375 C-71.51505859 153.87402344 -71.51505859 153.87402344 -70.19140625 152.7890625 C-69.34449219 152.09554687 -68.49757813 151.40203125 -67.625 150.6875 C-66.88894531 150.08421875 -66.15289062 149.4809375 -65.39453125 148.859375 C-62.8125 146.9375 -62.8125 146.9375 -60.84303284 146.15333557 C-58.29773229 145.01784187 -56.70239721 144.00378673 -54.8125 141.9375 C-53.6152679 137.25941948 -53.78952079 132.58808545 -53.8828125 127.79296875 C-53.88036683 126.38111747 -53.87410464 124.96926818 -53.86422729 123.55744934 C-53.84712294 119.8360387 -53.87592926 116.11644261 -53.91619873 112.39526367 C-53.97168839 106.48124268 -53.95272554 100.56687022 -53.94292831 94.65267372 C-53.94523421 92.61224459 -53.9639929 90.57256782 -53.98635864 88.53227234 C-54.09469702 65.16023895 -49.83874562 41.20965038 -37.8125 20.9375 C-37.15378906 19.80957031 -36.49507813 18.68164062 -35.81640625 17.51953125 C-32.52929019 12.12756749 -32.52929019 12.12756749 -30.8125 9.9375 C-30.1525 9.9375 -29.4925 9.9375 -28.8125 9.9375 C-28.4825 8.9475 -28.1525 7.9575 -27.8125 6.9375 C-26.32421875 5.40234375 -26.32421875 5.40234375 -24.5 3.875 C-23.90574219 3.36839844 -23.31148438 2.86179687 -22.69921875 2.33984375 C-16.02450762 -2.62127695 -7.80046234 -2.17389934 0 0 Z M-12.8125 354.9375 C-11.8225 355.2675 -10.8325 355.5975 -9.8125 355.9375 C-10.8025 356.2675 -11.7925 356.5975 -12.8125 356.9375 C-12.8125 356.2775 -12.8125 355.6175 -12.8125 354.9375 Z " fill="#2B2B2B" transform="translate(217.8125,103.0625)"/>
<path d="M0 0 C0.33 0 0.66 0 1 0 C3.49530048 16.33330268 4.63903814 32.48549632 5 49 C5.79954102 48.99057373 6.59908203 48.98114746 7.42285156 48.97143555 C8.4847168 48.964104 9.54658203 48.95677246 10.640625 48.94921875 C11.68766602 48.93979248 12.73470703 48.93036621 13.81347656 48.9206543 C25.5935995 49.21398405 36.5066465 53.01616002 46 60 C46 60.66 46 61.32 46 62 C46.66 62 47.32 62 48 62 C59.27555455 72.38303044 67.22431426 87.80428775 68.12548828 103.13476562 C69.04519779 125.66995951 64.60766123 144.51671926 51 163 C50.42121094 163.80824219 49.84242188 164.61648438 49.24609375 165.44921875 C46.23008952 168.87435051 42.82307221 171.5107323 39.1875 174.25 C38.15786133 175.06210937 38.15786133 175.06210937 37.10742188 175.890625 C32.68252727 179.23964646 29.56783505 180.73798423 24 181 C24 180.34 24 179.68 24 179 C24.66 178.67 25.32 178.34 26 178 C24.16299211 177.22757731 24.16299211 177.22757731 22 177 C21.2575 177.7425 21.2575 177.7425 20.5 178.5 C19.7575 179.2425 19.7575 179.2425 19 180 C16.875 179.625 16.875 179.625 15 179 C14.67 179.33 14.34 179.66 14 180 C15.32 180 16.64 180 18 180 C18 180.66 18 181.32 18 182 C16.68 181.67 15.36 181.34 14 181 C13.67 181.66 13.34 182.32 13 183 C13 182.01 13 181.02 13 180 C12.67 180.33 12.34 180.66 12 181 C11.01 181.33 10.02 181.66 9 182 C8.67 182.66 8.34 183.32 8 184 C6.01677956 176.33154761 5.460685 168.9084258 5 161 C5 166.94 5 172.88 5 179 C-6.99983779 181.99995945 -22.43492818 181.28271775 -34 177 C-35.42892578 176.50693359 -35.42892578 176.50693359 -36.88671875 176.00390625 C-57.85204954 168.08367018 -71.99385686 154.18107119 -81.12207031 134.0078125 C-88.69326025 116.69261061 -88.05875498 96.53046644 -81.8984375 78.8359375 C-77.82533682 68.45610027 -72.05695808 59.57486982 -65 51 C-64.55366211 50.45279297 -64.10732422 49.90558594 -63.64746094 49.34179688 C-62.16882009 47.53358538 -60.67999509 45.73428784 -59.1875 43.9375 C-58.70708252 43.35250732 -58.22666504 42.76751465 -57.73168945 42.16479492 C-56.53237955 40.73783527 -55.27087606 39.36360997 -54 38 C-53.34 38 -52.68 38 -52 38 C-51.34 36.68 -50.68 35.36 -50 34 C-49.34 34 -48.68 34 -48 34 C-48 33.34 -48 32.68 -48 32 C-37.4858037 20.81873989 -22.37177083 10.36260106 -8 5 C-7.505 6.485 -7.505 6.485 -7 8 C-4.3094472 6.77992056 -4.3094472 6.77992056 -2 5 C-2 4.34 -2 3.68 -2 3 C-1.34 3 -0.68 3 0 3 C0 2.01 0 1.02 0 0 Z " fill="#2B2B2B" transform="translate(181,281)"/>
<path d="M0 0 C2.0308957 15.00496726 3.21017124 29.84431864 3 45 C2.06800781 45.25652344 1.13601562 45.51304687 0.17578125 45.77734375 C-13.11957537 49.67329038 -24.48265038 55.85658908 -32 68 C-32.46921875 68.75796875 -32.9384375 69.5159375 -33.421875 70.296875 C-41.86962733 85.50282919 -41.49387214 102.49482274 -37.0703125 118.796875 C-36.24861025 122.04909587 -36.24861025 122.04909587 -34 124 C-33.5875 125.03125 -33.175 126.0625 -32.75 127.125 C-28.70907098 136.81518801 -20.64138733 144.90241038 -11 149 C-10.67 148.67 -10.34 148.34 -10 148 C-10.50789063 147.59910156 -11.01578125 147.19820312 -11.5390625 146.78515625 C-16.82735437 142.41785903 -20.63886649 137.97645337 -24 132 C-24.41507813 131.29746094 -24.83015625 130.59492188 -25.2578125 129.87109375 C-29.7298769 120.88005517 -29.74718316 108.89833731 -26.9296875 99.38671875 C-21.80475933 88.36672293 -12.97486661 80.71108572 -1.8125 76.1875 C1.52252343 75.14872221 3.59967635 74.8884177 7 75 C7.08040527 76.10174561 7.16081055 77.20349121 7.24365234 78.33862305 C7.617927 83.45512619 7.99572465 88.57136527 8.375 93.6875 C8.44313904 94.60736694 8.51127808 95.52723389 8.58148193 96.47497559 C9.33245829 106.5769688 10.09701012 116.67166784 11.125 126.75 C12.7077388 142.48767813 13.17184923 158.18987067 13 174 C1.33052741 177.36983034 -14.74667887 176.16727184 -26 172 C-27.42892578 171.50693359 -27.42892578 171.50693359 -28.88671875 171.00390625 C-49.85204954 163.08367018 -63.99385686 149.18107119 -73.12207031 129.0078125 C-80.69326025 111.69261061 -80.05875498 91.53046644 -73.8984375 73.8359375 C-69.82533682 63.45610027 -64.05695808 54.57486982 -57 46 C-56.55366211 45.45279297 -56.10732422 44.90558594 -55.64746094 44.34179688 C-54.16882009 42.53358538 -52.67999509 40.73428784 -51.1875 38.9375 C-50.70708252 38.35250732 -50.22666504 37.76751465 -49.73168945 37.16479492 C-48.53237955 35.73783527 -47.27087606 34.36360997 -46 33 C-45.34 33 -44.68 33 -44 33 C-43.34 31.68 -42.68 30.36 -42 29 C-41.34 29 -40.68 29 -40 29 C-40 28.34 -40 27.68 -40 27 C-31.01410047 17.44399808 -19.32762033 9.86053789 -7.8984375 3.59375 C-1.3627451 0 -1.3627451 0 0 0 Z " fill="#FBFBFB" transform="translate(173,286)"/>
<path d="M0 0 C7.21500042 4.38558849 12.17050328 8.98730595 15.1875 16.9375 C15.53554687 17.84628906 15.88359375 18.75507812 16.2421875 19.69140625 C20.67977856 32.11342209 21.47340616 44.12981327 21.3125 57.1875 C21.30243849 58.62629577 21.29331831 60.06509845 21.28515625 61.50390625 C21.2634206 64.98191753 21.22907033 68.45966245 21.1875 71.9375 C18.73828125 71.1015625 18.73828125 71.1015625 16.1875 69.9375 C15.375 67.3125 15.375 67.3125 15.1875 64.9375 C13.8675 64.9375 12.5475 64.9375 11.1875 64.9375 C10.62290238 66.18655395 10.06102436 67.43683701 9.5 68.6875 C9.12746094 69.51507813 8.75492188 70.34265625 8.37109375 71.1953125 C7.58998064 73.0050201 6.85167436 74.83388632 6.16015625 76.6796875 C-0.01325825 92.89313911 -11.41932901 108.01945302 -24.8125 118.9375 C-26.00145054 119.97751073 -27.18899447 121.0191321 -28.375 122.0625 C-37.60483871 129.9375 -37.60483871 129.9375 -40.8125 129.9375 C-41.8025 131.9175 -41.8025 131.9175 -42.8125 133.9375 C-43.1425 133.6075 -43.4725 133.2775 -43.8125 132.9375 C-44.1425 133.9275 -44.4725 134.9175 -44.8125 135.9375 C-46.4625 136.2675 -48.1125 136.5975 -49.8125 136.9375 C-50.1425 138.5875 -50.4725 140.2375 -50.8125 141.9375 C-51.8025 141.9375 -52.7925 141.9375 -53.8125 141.9375 C-53.85925404 133.73889852 -53.89458446 125.54035461 -53.91612434 117.34165192 C-53.92647282 113.53289514 -53.94046413 109.72423089 -53.96337891 105.91552734 C-53.98543186 102.22613136 -53.99713538 98.53682324 -54.00225449 94.84736633 C-54.00589304 93.45386882 -54.01299381 92.06037501 -54.02396011 90.66691589 C-54.20577717 66.56073366 -50.24150152 41.88855953 -37.8125 20.9375 C-36.82443359 19.24560547 -36.82443359 19.24560547 -35.81640625 17.51953125 C-32.52929019 12.12756749 -32.52929019 12.12756749 -30.8125 9.9375 C-30.1525 9.9375 -29.4925 9.9375 -28.8125 9.9375 C-28.4825 8.9475 -28.1525 7.9575 -27.8125 6.9375 C-26.32421875 5.40234375 -26.32421875 5.40234375 -24.5 3.875 C-23.90574219 3.36839844 -23.31148437 2.86179687 -22.69921875 2.33984375 C-16.02450762 -2.62127695 -7.80046234 -2.17389934 0 0 Z " fill="#2B2B2B" transform="translate(217.8125,103.0625)"/>
<path d="M0 0 C5.8119182 3.22379838 9.26843567 6.99055846 12 13 C15.96465172 28.85860687 10.88359836 44.41683329 3.06982422 58.21923828 C-3.74450067 69.56193243 -11.90182705 79.47966658 -22 88 C-22.86625 88.7734375 -22.86625 88.7734375 -23.75 89.5625 C-35.4921875 100 -35.4921875 100 -40 100 C-40.05039785 95.06023556 -40.08617722 90.12062893 -40.10986328 85.18066406 C-40.11976371 83.50908799 -40.13328753 81.83752845 -40.15087891 80.16601562 C-40.39481379 56.34649192 -39.39018886 28.16040004 -21.75 10.0625 C-16.13119623 4.77241536 -8.26236206 -1.97578223 0 0 Z " fill="#FAFAFA" transform="translate(215,134)"/>
<path d="M0 0 C8.77725484 -0.47021008 17.11225002 3.75219049 24 9 C24.969375 9.680625 25.93875 10.36125 26.9375 11.0625 C35.7388323 18.66260059 40.51213157 30.62290371 41.37890625 42.0078125 C41.91336247 54.27322656 40.53183143 69.01777634 32.8203125 79.015625 C26.49798407 85.90777702 19.90322017 91.74909943 11 95 C10.01 95 9.02 95 8 95 C7.91435791 94.08710205 7.82871582 93.1742041 7.74047852 92.23364258 C7.42012975 88.83223519 7.09744395 85.43106609 6.77319336 82.0300293 C6.63359004 80.56071646 6.49490657 79.09131591 6.35717773 77.62182617 C6.15853396 75.50415446 5.95653509 73.38682492 5.75390625 71.26953125 C5.63345947 69.99698486 5.5130127 68.72443848 5.38891602 67.41333008 C5.06294959 64.55247849 4.58263566 61.81520761 4 59 C3.84408233 56.56017716 3.72250047 54.12955996 3.625 51.6875 C3.13644925 41.17855797 2.07214087 30.72246791 1.01611328 20.25854492 C0.34295061 13.47907538 -0.17323431 6.81639338 0 0 Z " fill="#FAFAFA" transform="translate(190,361)"/>
<path d="M0 0 C4.89890758 3.68541671 8.44852368 9.09557105 10.375 14.875 C11.22247568 24.78074029 9.78016624 32.11241097 4.75 40.625 C-1.04915844 46.11893957 -7.78709773 50.07229837 -15.875 49.9375 C-17.73125 49.9065625 -17.73125 49.9065625 -19.625 49.875 C-19.295 51.525 -18.965 53.175 -18.625 54.875 C-18.955 54.215 -19.285 53.555 -19.625 52.875 C-20.285 52.875 -20.945 52.875 -21.625 52.875 C-21.295 54.195 -20.965 55.515 -20.625 56.875 C-22.11 56.38 -22.11 56.38 -23.625 55.875 C-24.615 56.37 -24.615 56.37 -25.625 56.875 C-25.625 57.535 -25.625 58.195 -25.625 58.875 C-33.54071338 55.65007973 -38.02239859 47.65761672 -41.375 40.1875 C-44.69366833 31.39302891 -45.52287118 19.72797676 -42.6015625 10.71875 C-38.72792752 3.78472937 -32.79210331 -1.04144835 -25.75 -4.5625 C-16.13256341 -6.29363859 -8.24864061 -5.20492825 0 0 Z " fill="#292929" transform="translate(145.625,512.125)"/>
<path d="M0 0 C0.33 0 0.66 0 1 0 C1.05534912 0.62455078 1.11069824 1.24910156 1.16772461 1.89257812 C1.42284782 4.76185148 1.68015928 7.63092471 1.9375 10.5 C2.06801758 11.97339844 2.06801758 11.97339844 2.20117188 13.4765625 C2.59516732 17.85428963 3.01157861 22.2096341 3.625 26.5625 C3.99551992 29.95893261 3.94169371 31.25878535 2 34 C2.66 34 3.32 34 4 34 C4 36.97 4 39.94 4 43 C3.67 43 3.34 43 3 43 C3 40.36 3 37.72 3 35 C2.24847656 35.15984375 1.49695313 35.3196875 0.72265625 35.484375 C-12.13420588 37.26517857 -27.72429116 37.76175183 -40 33 C-40.66 32.34 -41.32 31.68 -42 31 C-40 30 -40 30 -37 30 C-37 29.01 -37 28.02 -37 27 C-36.67 26.34 -36.34 25.68 -36 25 C-35.44199707 25.0714624 -34.88399414 25.1429248 -34.30908203 25.21655273 C-26.81948359 26.07946179 -19.40651538 26.11450179 -11.875 26.0625 C-5.501875 26.0315625 -5.501875 26.0315625 1 26 C0.505 13.13 0.505 13.13 0 0 Z " fill="#3F3F3F" transform="translate(185,434)"/>
<path d="M0 0 C0.33 0 0.66 0 1 0 C1.33 53.79 1.66 107.58 2 163 C3.98 162.01 3.98 162.01 6 161 C6.99 162.32 7.98 163.64 9 165 C7.8803014 166.00593243 6.7540588 167.0045849 5.625 168 C4.99851562 168.556875 4.37203125 169.11375 3.7265625 169.6875 C2 171 2 171 0 171 C0 114.57 0 58.14 0 0 Z " fill="#373737" transform="translate(120,80)"/>
<path d="M0 0 C4.8547265 0.41611941 6.80439079 2.45891952 10 6 C13.83867917 9.83867917 18.54325706 10.24658941 23.8125 10.27734375 C24.493125 10.26832031 25.17375 10.25929688 25.875 10.25 C26.57882813 10.24613281 27.28265625 10.24226562 28.0078125 10.23828125 C32.98762916 10.15528431 37.29107427 9.56964191 42 8 C41 10 41 10 38.4609375 11.0859375 C34.46719705 12.14071771 30.73519365 12.44661908 26.625 12.625 C25.88894531 12.66367187 25.15289062 12.70234375 24.39453125 12.7421875 C22.59672594 12.83557998 20.79839892 12.9188371 19 13 C18.67 14.32 18.34 15.64 18 17 C12.65594711 16.49234928 8.4675284 15.10999865 3.6875 12.625 C2.7584082 12.16867187 2.7584082 12.16867187 1.81054688 11.703125 C-1.40516391 10.06908304 -2.95861924 9.06207113 -5 6 C-4.34 5.01 -3.68 4.02 -3 3 C-3.66 2.34 -4.32 1.68 -5 1 C-4.360625 1.165 -3.72125 1.33 -3.0625 1.5 C-1.19173179 2.03926667 -1.19173179 2.03926667 0 2 C0 1.34 0 0.68 0 0 Z " fill="#2E2E2E" transform="translate(124,565)"/>
<path d="M0 0 C0.33 0 0.66 0 1 0 C1.02578125 0.89460938 1.0515625 1.78921875 1.078125 2.7109375 C1.67743093 15.48705018 5.06743378 26.20358893 14.38671875 35.33984375 C16.55490428 37.27657463 18.74724033 39.16274934 21 41 C18 42 18 42 15.80078125 41.06640625 C7.53332762 36.06959362 -1.39551235 29.37560721 -5 20 C-4.55594611 17.02483897 -3.41499119 14.64131688 -2 12 C-1.34 12 -0.68 12 0 12 C0 8.04 0 4.08 0 0 Z " fill="#333333" transform="translate(144,394)"/>
<path d="M0 0 C0.99 0 1.98 0 3 0 C3 0.99 3 1.98 3 3 C2.34 3 1.68 3 1 3 C1 3.66 1 4.32 1 5 C1.66 5 2.32 5 3 5 C3.33 6.32 3.66 7.64 4 9 C1.69 9.33 -0.62 9.66 -3 10 C-3.061875 10.721875 -3.12375 11.44375 -3.1875 12.1875 C-4.30968089 16.07197232 -5.79847671 17.53215913 -9 20 C-11.96458862 20.96336715 -14.91852237 21.55019825 -18 22 C-18 21.01 -18 20.02 -18 19 C-17.34 19 -16.68 19 -16 19 C-16.33 18.01 -16.66 17.02 -17 16 C-16.360625 15.7525 -15.72125 15.505 -15.0625 15.25 C-12.81523431 14.21635115 -12.81523431 14.21635115 -12.5 12.0625 C-12.2525 11.0415625 -12.2525 11.0415625 -12 10 C-10.125 8.375 -10.125 8.375 -8 7 C-7.01 6.34 -6.02 5.68 -5 5 C-4.34 5 -3.68 5 -3 5 C-2.525625 4.175 -2.05125 3.35 -1.5625 2.5 C-1.046875 1.675 -0.53125 0.85 0 0 Z " fill="#272727" transform="translate(192,552)"/>
<path d="M0 0 C0.66 0.33 1.32 0.66 2 1 C2 1.99 2 2.98 2 4 C1.01 4.33 0.02 4.66 -1 5 C-1 5.99 -1 6.98 -1 8 C-1.99 8 -2.98 8 -4 8 C-4.33 8.99 -4.66 9.98 -5 11 C-7.87525669 11.05425013 -10.74947646 11.09379277 -13.625 11.125 C-14.43324219 11.14175781 -15.24148437 11.15851562 -16.07421875 11.17578125 C-20.73939377 11.2137095 -24.69801898 11.04920863 -29 9 C-29.33 8.01 -29.66 7.02 -30 6 C-26.42623058 5.1481131 -22.9937392 4.87826283 -19.32666016 4.75927734 C-12.75109008 4.53200041 -7.46602735 4.02538211 -1.6015625 0.7421875 C-1.07304687 0.49726562 -0.54453125 0.25234375 0 0 Z " fill="#2E2E2E" transform="translate(168,572)"/>
<path d="M0 0 C0.515625 0.66 1.03125 1.32 1.5625 2 C6.10875151 7.59538647 10.82308595 12.97996213 16 18 C7.19669904 16.67178266 0.83287057 10.33926126 -5 4 C-4.01 3.67 -3.02 3.34 -2 3 C-1.67 2.34 -1.34 1.68 -1 1 C-0.67 0.67 -0.34 0.34 0 0 Z " fill="#323232" transform="translate(149,418)"/>
<path d="M0 0 C0 3.20395416 -0.74335022 5.09399739 -2 8 C-3.8141927 7.71905418 -5.62635001 7.42493567 -7.4375 7.125 C-8.95150391 6.88136719 -8.95150391 6.88136719 -10.49609375 6.6328125 C-11.32238281 6.42398437 -12.14867187 6.21515625 -13 6 C-13.33 5.34 -13.66 4.68 -14 4 C-13.34 4 -12.68 4 -12 4 C-12 2.68 -12 1.36 -12 0 C-7.91556885 -1.53166168 -4.20544343 -0.63081652 0 0 Z " fill="#2C2C2C" transform="translate(150,458)"/>
<path d="M0 0 C0.66 0.33 1.32 0.66 2 1 C-3.28868981 3.59222247 -7.58038278 4.49994364 -13.4375 4.6875 C-14.53481445 4.73874023 -14.53481445 4.73874023 -15.65429688 4.79101562 C-17.43569562 4.87251753 -19.21781749 4.93795523 -21 5 C-21.33 6.32 -21.66 7.64 -22 9 C-28.625 8.25 -28.625 8.25 -32 6 C-31.195625 5.525625 -30.39125 5.05125 -29.5625 4.5625 C-27.15246512 3.23099846 -27.15246512 3.23099846 -26 2 C-25.34 1.67 -24.68 1.34 -24 1 C-23.34 1.33 -22.68 1.66 -22 2 C-19.40390789 2.12514794 -16.84629533 2.18517357 -14.25 2.1875 C-13.19425781 2.20586914 -13.19425781 2.20586914 -12.1171875 2.22460938 C-7.652212 2.23705819 -4.24740606 1.50693898 0 0 Z " fill="#505050" transform="translate(164,573)"/>
<path d="M0 0 C1.32 0.66 2.64 1.32 4 2 C4.25 4.25 4.25 4.25 4 7 C2.125 9.3125 2.125 9.3125 0 11 C-0.66 11 -1.32 11 -2 11 C-3.53656962 8.5595659 -4.02089707 7.29255898 -3.8125 4.375 C-3 2 -3 2 0 0 Z " fill="#2B2B2B" transform="translate(102,425)"/>
<path d="M0 0 C0.33 0.99 0.66 1.98 1 3 C-0.3984375 5.15625 -0.3984375 5.15625 -2.375 7.5 C-4.5596122 10.11109028 -5.91576304 11.74728912 -7 15 C-9.0625 15.6875 -9.0625 15.6875 -11 16 C-11 16.66 -11 17.32 -11 18 C-12.75 19.5078125 -12.75 19.5078125 -15 21.125 C-15.7425 21.66382813 -16.485 22.20265625 -17.25 22.7578125 C-17.8275 23.16773438 -18.405 23.57765625 -19 24 C-19.66 23.67 -20.32 23.34 -21 23 C-20.23816406 22.34515625 -19.47632813 21.6903125 -18.69140625 21.015625 C-11.39495827 14.61167626 -5.52494482 7.99442774 0 0 Z " fill="#DDDDDD" transform="translate(212,252)"/>
<path d="M0 0 C2.375 0.25 2.375 0.25 5 1 C6.3125 3.0625 6.3125 3.0625 7 5 C6.01 5.33 5.02 5.66 4 6 C3.195625 6.556875 2.39125 7.11375 1.5625 7.6875 C0.716875 8.120625 -0.12875 8.55375 -1 9 C-3.3125 8.1875 -3.3125 8.1875 -5 7 C-4.34 5.68 -3.68 4.36 -3 3 C-3.66 2.34 -4.32 1.68 -5 1 C-4.360625 1.165 -3.72125 1.33 -3.0625 1.5 C-1.19173179 2.03926667 -1.19173179 2.03926667 0 2 C0 1.34 0 0.68 0 0 Z " fill="#333333" transform="translate(124,565)"/>
<path d="M0 0 C2.64 0.66 5.28 1.32 8 2 C5.71973999 5.42039001 5.6132423 5.12406247 2 6 C1.2884375 6.804375 1.2884375 6.804375 0.5625 7.625 C0.046875 8.07875 -0.46875 8.5325 -1 9 C-3.6875 8.6875 -3.6875 8.6875 -6 8 C-5.34 7.67 -4.68 7.34 -4 7 C-4 6.01 -4 5.02 -4 4 C-2.68 3.67 -1.36 3.34 0 3 C0 2.01 0 1.02 0 0 Z " fill="#363636" transform="translate(137,454)"/>
<path d="M0 0 C1.125 1.6875 1.125 1.6875 2 4 C1.125 6.625 1.125 6.625 0 9 C0 9.66 0 10.32 0 11 C-1.98 11.66 -3.96 12.32 -6 13 C-5.67 11.68 -5.34 10.36 -5 9 C-6.98 9.99 -6.98 9.99 -9 11 C-8.60167969 10.54109375 -8.20335937 10.0821875 -7.79296875 9.609375 C-5.08857938 6.47728415 -2.42008229 3.36122541 0 0 Z " fill="#373737" transform="translate(224,437)"/>
<path d="M0 0 C0.66 0.33 1.32 0.66 2 1 C2 1.99 2 2.98 2 4 C1.01 4.33 0.02 4.66 -1 5 C-1 5.99 -1 6.98 -1 8 C-1.99 8 -2.98 8 -4 8 C-4 7.34 -4 6.68 -4 6 C-4.7425 6.350625 -5.485 6.70125 -6.25 7.0625 C-9.16209794 8.05526066 -10.21069033 8.1541971 -13 7 C-13.66 6.34 -14.32 5.68 -15 5 C-14.16855469 4.80664062 -13.33710938 4.61328125 -12.48046875 4.4140625 C-11.39378906 4.15367187 -10.30710938 3.89328125 -9.1875 3.625 C-8.10855469 3.36976563 -7.02960938 3.11453125 -5.91796875 2.8515625 C-2.84466657 2.11267119 -2.84466657 2.11267119 0 0 Z " fill="#242424" transform="translate(168,572)"/>
<path d="M0 0 C0.66 0.33 1.32 0.66 2 1 C0 4 0 4 -2.1875 4.75 C-8.65470775 7.62431456 -12.60596179 13.46874355 -15.95703125 19.49609375 C-16.30121094 19.99238281 -16.64539063 20.48867187 -17 21 C-17.66 21 -18.32 21 -19 21 C-16.47802363 12.0329729 -7.47751945 4.98501297 0 0 Z " fill="#D0D0D0" transform="translate(204,136)"/>
<path d="M0 0 C1.670625 0.061875 1.670625 0.061875 3.375 0.125 C3.375 1.445 3.375 2.765 3.375 4.125 C2.055 4.455 0.735 4.785 -0.625 5.125 C-0.625 6.115 -0.625 7.105 -0.625 8.125 C-1.615 7.795 -2.605 7.465 -3.625 7.125 C-4.8125 4.5625 -4.8125 4.5625 -5.625 2.125 C-3.625 0.125 -3.625 0.125 0 0 Z " fill="#2D2D2D" transform="translate(133.625,452.875)"/>
<path d="M0 0 C3.80635497 3.20760251 7.54563567 6.40746109 11 10 C6.07750013 9.53851564 1.72262318 7.19609831 -2 4 C-2 3.01 -2 2.02 -2 1 C-1.34 0.67 -0.68 0.34 0 0 Z " fill="#4B4B4B" transform="translate(154,426)"/>
<path d="M0 0 C2.14249871 2.31389861 3 3.41588973 3 6.625 C2 9 2 9 -0.3125 10.1875 C-1.199375 10.455625 -2.08625 10.72375 -3 11 C-4.34144992 11.65018023 -5.67640017 12.3142116 -7 13 C-6.57847656 12.22914063 -6.15695313 11.45828125 -5.72265625 10.6640625 C-5.17480469 9.66117188 -4.62695312 8.65828125 -4.0625 7.625 C-3.51722656 6.62726562 -2.97195312 5.62953125 -2.41015625 4.6015625 C-1.5850241 3.07929654 -0.77435609 1.54871217 0 0 Z " fill="#3D3D3D" transform="translate(187,549)"/>
<path d="M0 0 C0.66 0.99 1.32 1.98 2 3 C1.50628906 3.40992188 1.01257813 3.81984375 0.50390625 4.2421875 C-0.45708984 5.05042969 -0.45708984 5.05042969 -1.4375 5.875 C-2.07558594 6.40867187 -2.71367187 6.94234375 -3.37109375 7.4921875 C-5.10805004 8.9222757 -5.10805004 8.9222757 -6 11 C-6.66 11 -7.32 11 -8 11 C-8.33 11.66 -8.66 12.32 -9 13 C-10.97485205 14.3703055 -12.97386717 15.70672372 -15 17 C-15.66 16.67 -16.32 16.34 -17 16 C-16.02417969 15.18015625 -15.04835938 14.3603125 -14.04296875 13.515625 C-12.757625 12.42730474 -11.47247911 11.33875077 -10.1875 10.25 C-9.54490234 9.71117187 -8.90230469 9.17234375 -8.24023438 8.6171875 C-5.10669271 5.95448889 -2.26969571 3.47626257 0 0 Z " fill="#E4E4E4" transform="translate(446,455)"/>
<path d="M0 0 C4.55015893 1.51671964 6.50057264 5.16891053 9 9 C8.67 9.66 8.34 10.32 8 11 C6.140625 10.74609375 6.140625 10.74609375 4 10 C2.734375 8.22265625 2.734375 8.22265625 1.75 6.0625 C1.41484375 5.35222656 1.0796875 4.64195312 0.734375 3.91015625 C0 2 0 2 0 0 Z " fill="#383838" transform="translate(145,513)"/>
<path d="M0 0 C-1.12451727 2.9719385 -2.22293791 5.33440687 -4 8 C-6.64 7.67 -9.28 7.34 -12 7 C-2.9 0 -2.9 0 0 0 Z " fill="#3E3E3E" transform="translate(215,448)"/>
<path d="M0 0 C-4.95912807 5.13623978 -4.95912807 5.13623978 -8 7 C-8.99 6.67 -9.98 6.34 -11 6 C-10.34 5.67 -9.68 5.34 -9 5 C-9.33 3.68 -9.66 2.36 -10 1 C-6.78548731 -0.60725635 -3.56387464 -0.05748185 0 0 Z " fill="#353535" transform="translate(433,468)"/>
<path d="M0 0 C0.33 0 0.66 0 1 0 C1.08075665 2.29109597 1.13907731 4.58299267 1.1875 6.875 C1.22230469 8.15117187 1.25710937 9.42734375 1.29296875 10.7421875 C1.19628906 11.81726563 1.09960938 12.89234375 1 14 C0.01 14.66 -0.98 15.32 -2 16 C-2.33 15.34 -2.66 14.68 -3 14 C-2.67 13.34 -2.34 12.68 -2 12 C-1.34 12 -0.68 12 0 12 C0 8.04 0 4.08 0 0 Z M-4 16 C-3.34 16 -2.68 16 -2 16 C-2.33 17.65 -2.66 19.3 -3 21 C-3.66 20.67 -4.32 20.34 -5 20 C-4.67 18.68 -4.34 17.36 -4 16 Z " fill="#535353" transform="translate(144,394)"/>
<path d="M0 0 C0.99 1.32 1.98 2.64 3 4 C3.66 3.34 4.32 2.68 5 2 C4.67 3.98 4.34 5.96 4 8 C3.401875 8.12375 2.80375 8.2475 2.1875 8.375 C-0.26231348 8.95475985 -0.26231348 8.95475985 -3 11 C-2.01 7.37 -1.02 3.74 0 0 Z " fill="#404040" transform="translate(226,171)"/>
<path d="M0 0 C0 0.99 0 1.98 0 3 C0.66 3.66 1.32 4.32 2 5 C1.34 5 0.68 5 0 5 C0 5.66 0 6.32 0 7 C-1.32 7 -2.64 7 -4 7 C-4 6.34 -4 5.68 -4 5 C-3.34 4.67 -2.68 4.34 -2 4 C-4.49064888 3.31292445 -6.37886292 3 -9 3 C-6.38997624 -0.48003168 -4.1689578 -0.27793052 0 0 Z " fill="#232323" transform="translate(209,455)"/>
<path d="M0 0 C0.33 0.99 0.66 1.98 1 3 C-0.73653439 4.70360012 -2.48685393 6.38683827 -4.25 8.0625 C-4.98669922 8.79049805 -4.98669922 8.79049805 -5.73828125 9.53320312 C-7.203125 10.91015625 -7.203125 10.91015625 -10 13 C-12.359375 12.80859375 -12.359375 12.80859375 -14 12 C-12.40012144 10.68227638 -10.79494034 9.37098863 -9.1875 8.0625 C-8.29417969 7.33160156 -7.40085938 6.60070312 -6.48046875 5.84765625 C-4 4 -4 4 -1 3 C-0.67 2.01 -0.34 1.02 0 0 Z " fill="#D0D0D0" transform="translate(229,446)"/>
<path d="M0 0 C0 0.66 0 1.32 0 2 C-0.66 2.66 -1.32 3.32 -2 4 C-1.6814823 6.10820797 -1.6814823 6.10820797 -1 8 C-2.875 7.6875 -2.875 7.6875 -5 7 C-5.66 6.01 -6.32 5.02 -7 4 C-9.05003955 2.80767387 -9.05003955 2.80767387 -11 2 C-3.375 0 -3.375 0 0 0 Z " fill="#353535" transform="translate(276,248)"/>
<path d="M0 0 C3 3 6 6 9 9 C8.67 9.66 8.34 10.32 8 11 C7.67 11 7.34 11 7 11 C6.34 11.66 5.68 12.32 5 13 C2.69559987 8.70543612 1.21815438 4.68520915 0 0 Z " fill="#404040" transform="translate(409,78)"/>
<path d="M0 0 C1.32 0.99 2.64 1.98 4 3 C2.25 8.75 2.25 8.75 0 11 C-0.99 11 -1.98 11 -3 11 C-2.34 9.02 -1.68 7.04 -1 5 C-0.34 5 0.32 5 1 5 C0.67 3.35 0.34 1.7 0 0 Z " fill="#313131" transform="translate(460,424)"/>
<path d="M0 0 C1.32 0 2.64 0 4 0 C4 0.66 4 1.32 4 2 C4.66 2.33 5.32 2.66 6 3 C4.35 4.98 2.7 6.96 1 9 C-1 6 -1 6 -0.625 2.8125 C-0.41875 1.884375 -0.2125 0.95625 0 0 Z " fill="#323232" transform="translate(202,256)"/>
<path d="M0 0 C0.66 0 1.32 0 2 0 C2.66 0.66 3.32 1.32 4 2 C4.99 2 5.98 2 7 2 C6.21302675 5.41021743 5.12880057 8.68885166 4 12 C1.78600697 8.20458337 0.99019802 4.24370579 0 0 Z " fill="#444444" transform="translate(320,110)"/>
<path d="M0 0 C0.33 1.32 0.66 2.64 1 4 C0.0246803 5.02408568 -0.98198643 6.01834406 -2 7 C-3.14472883 9.28945765 -4.05554302 11.61637049 -5 14 C-5.99 13.34 -6.98 12.68 -8 12 C-5.36 8.04 -2.72 4.08 0 0 Z " fill="#D7D7D7" transform="translate(459,437)"/>
<path d="M0 0 C2.475 0.99 2.475 0.99 5 2 C4.25 7.75 4.25 7.75 2 10 C1.01 7.03 0.02 4.06 -1 1 C-0.67 0.67 -0.34 0.34 0 0 Z " fill="#343434" transform="translate(227,384)"/>
<path d="M0 0 C0.99 0.66 1.98 1.32 3 2 C2.01 2 1.02 2 0 2 C0.33 2.66 0.66 3.32 1 4 C1.99 4 2.98 4 4 4 C1.3144406 6.6855594 -1.37621328 7.06049974 -5 8 C-4.64950425 4.75791433 -4.43778819 3.38472296 -1.9375 1.1875 C-1.298125 0.795625 -0.65875 0.40375 0 0 Z " fill="#252525" transform="translate(219,445)"/>
<path d="M0 0 C-4.75 4 -4.75 4 -7 4 C-7.33 4.66 -7.66 5.32 -8 6 C-8 5.34 -8 4.68 -8 4 C-9.32 4.33 -10.64 4.66 -12 5 C-5.5 -1.96428571 -5.5 -1.96428571 0 0 Z " fill="#4F4F4F" transform="translate(205,103)"/>
<path d="M0 0 C0.66 0.33 1.32 0.66 2 1 C1.8125 2.8125 1.8125 2.8125 1 5 C-1.3125 6.625 -1.3125 6.625 -4 8 C-4.763125 8.391875 -5.52625 8.78375 -6.3125 9.1875 C-6.869375 9.455625 -7.42625 9.72375 -8 10 C-6.34908222 5.70761377 -3.26245434 3.1206085 0 0 Z " fill="#D0D0D0" transform="translate(159,369)"/>
<path d="M0 0 C0 3 0 3 -2.375 5.4375 C-3.24125 6.283125 -4.1075 7.12875 -5 8 C-6.29519995 10.16620544 -6.29519995 10.16620544 -7 12 C-8.32 11.67 -9.64 11.34 -11 11 C-7.37 7.37 -3.74 3.74 0 0 Z " fill="#4E4E4E" transform="translate(128,273)"/>
<path d="M0 0 C6.44807122 0.60830861 6.44807122 0.60830861 8.9375 2.375 C10 4 10 4 10 7 C6.42032008 5.34784004 3.22017048 3.26875648 0 1 C0 0.67 0 0.34 0 0 Z " fill="#E7E7E7" transform="translate(417,271)"/>
<path d="M0 0 C0.66 0.33 1.32 0.66 2 1 C1.67 2.32 1.34 3.64 1 5 C1.66 5 2.32 5 3 5 C3 6.65 3 8.3 3 10 C2.01 9.01 1.02 8.02 0 7 C-0.33 8.32 -0.66 9.64 -1 11 C-1.66 10.34 -2.32 9.68 -3 9 C-2 6 -1 3 0 0 Z " fill="#232323" transform="translate(226,436)"/>
<path d="M0 0 C0.66 0 1.32 0 2 0 C2.66 2.64 3.32 5.28 4 8 C2.02 7.34 0.04 6.68 -2 6 C-1.125 1.125 -1.125 1.125 0 0 Z " fill="#363636" transform="translate(144,408)"/>
<path d="M0 0 C0.33 0 0.66 0 1 0 C0.67 2.31 0.34 4.62 0 7 C-0.66 7 -1.32 7 -2 7 C-2 7.99 -2 8.98 -2 10 C-2.99 10 -3.98 10 -5 10 C-3.85017555 6.10828647 -2.70784225 3.06103907 0 0 Z " fill="#DEDEDE" transform="translate(109,341)"/>
<path d="M0 0 C0.66 0 1.32 0 2 0 C2 0.66 2 1.32 2 2 C3.32 1.34 4.64 0.68 6 0 C7.65 1.32 9.3 2.64 11 4 C7.69564916 5.12377697 5.9493138 4.89554742 2.75 3.5625 C2.04359375 3.27503906 1.3371875 2.98757813 0.609375 2.69140625 C0.07828125 2.46324219 -0.4528125 2.23507812 -1 2 C-0.67 1.34 -0.34 0.68 0 0 Z " fill="#494949" transform="translate(293,265)"/>
<path d="M0 0 C0.66 0 1.32 0 2 0 C1.25 5.75 1.25 5.75 -1 8 C-1 7.34 -1 6.68 -1 6 C-1.99 5.67 -2.98 5.34 -4 5 C-4.6875 2.9375 -4.6875 2.9375 -5 1 C-3.35 1 -1.7 1 0 1 C0 0.67 0 0.34 0 0 Z " fill="#242424" transform="translate(184,359)"/>
<path d="M0 0 C0 0.66 0 1.32 0 2 C0.66 2.33 1.32 2.66 2 3 C2.66 4.32 3.32 5.64 4 7 C0.37 5.35 -3.26 3.7 -7 2 C-3 0 -3 0 0 0 Z " fill="#454545" transform="translate(97,42)"/>
<path d="M0 0 C0.99 0.33 1.98 0.66 3 1 C1.25 6.75 1.25 6.75 -1 9 C-1.33 6.69 -1.66 4.38 -2 2 C-1.34 2 -0.68 2 0 2 C0 1.34 0 0.68 0 0 Z " fill="#ECECEC" transform="translate(93,312)"/>
<path d="M0 0 C0.33 0.66 0.66 1.32 1 2 C1.66 2.33 2.32 2.66 3 3 C1.68 4.65 0.36 6.3 -1 8 C-1.99 7.34 -2.98 6.68 -4 6 C-4 4 -4 4 -2 1.875 C-1.34 1.25625 -0.68 0.6375 0 0 Z " fill="#333333" transform="translate(213,244)"/>
<path d="M0 0 C1.32 0.66 2.64 1.32 4 2 C2.19587357 5.26460973 1.16605307 6.88929795 -2 9 C-1.7215625 7.824375 -1.7215625 7.824375 -1.4375 6.625 C-0.74037734 4.02910225 -0.74037734 4.02910225 -2 2 C-1.34 2 -0.68 2 0 2 C0 1.34 0 0.68 0 0 Z " fill="#353535" transform="translate(413,213)"/>
<path d="M0 0 C0 0.66 0 1.32 0 2 C-0.8971875 2.1546875 -0.8971875 2.1546875 -1.8125 2.3125 C-4.31537724 3.09911856 -5.21314755 4.13545831 -7 6 C-7.99 6.33 -8.98 6.66 -10 7 C-10 5.68 -10 4.36 -10 3 C-8.70990357 2.49596232 -7.41786211 1.99690074 -6.125 1.5 C-5.04605469 1.08234375 -5.04605469 1.08234375 -3.9453125 0.65625 C-2 0 -2 0 0 0 Z " fill="#C8C8C8" transform="translate(209,462)"/>
<path d="M0 0 C1.32 1.32 2.64 2.64 4 4 C3.01 4.33 2.02 4.66 1 5 C0.67 3.35 0.34 1.7 0 0 Z M-4 3 C-1.525 3.99 -1.525 3.99 1 5 C0.01 5.66 -0.98 6.32 -2 7 C-2.66 5.68 -3.32 4.36 -4 3 Z M-3 7 C-3 7.99 -3 8.98 -3 10 C-3.66 9.34 -4.32 8.68 -5 8 C-4.34 7.67 -3.68 7.34 -3 7 Z " fill="#3E3E3E" transform="translate(115,438)"/>
<path d="M0 0 C0.33 0.99 0.66 1.98 1 3 C-0.43359375 5.04296875 -0.43359375 5.04296875 -2.4375 7.1875 C-3.09621094 7.90292969 -3.75492188 8.61835938 -4.43359375 9.35546875 C-4.95050781 9.89816406 -5.46742188 10.44085938 -6 11 C-6.66 10.67 -7.32 10.34 -8 10 C-5.36 6.7 -2.72 3.4 0 0 Z " fill="#D2D2D2" transform="translate(212,252)"/>
<path d="M0 0 C0.33 0.99 0.66 1.98 1 3 C0.01 4.485 0.01 4.485 -1 6 C-2.32 5.67 -3.64 5.34 -5 5 C-5 5.66 -5 6.32 -5 7 C-6.32 6.67 -7.64 6.34 -9 6 C-6.03 4.02 -3.06 2.04 0 0 Z " fill="#464646" transform="translate(298,235)"/>
<path d="M0 0 C1.125 3.75 1.125 3.75 0 6 C0.66 6 1.32 6 2 6 C1.67 7.65 1.34 9.3 1 11 C0.01 11.33 -0.98 11.66 -2 12 C-1.85831863 10.56208484 -1.71148957 9.1246763 -1.5625 7.6875 C-1.48128906 6.88699219 -1.40007812 6.08648437 -1.31640625 5.26171875 C-1 3 -1 3 0 0 Z " fill="#DADADA" transform="translate(150,139)"/>
<path d="M0 0 C-0.96355353 10.55808656 -0.96355353 10.55808656 -2 15 C-2.33 15 -2.66 15 -3 15 C-3 10.38 -3 5.76 -3 1 C-1 0 -1 0 0 0 Z " fill="#424242" transform="translate(149,142)"/>
<path d="M0 0 C-1.485 1.485 -1.485 1.485 -3 3 C-2.67 3.66 -2.34 4.32 -2 5 C-4.31 4.67 -6.62 4.34 -9 4 C-9.33 3.01 -9.66 2.02 -10 1 C-6.59437148 0.22157062 -3.49234244 -0.09978121 0 0 Z " fill="#232323" transform="translate(148,577)"/>
<path d="M0 0 C0.66 0.33 1.32 0.66 2 1 C0.55746343 4.36591866 -1.33264727 6.51047079 -4 9 C-4.66 8.34 -5.32 7.68 -6 7 C-4.02 4.69 -2.04 2.38 0 0 Z " fill="#3C3C3C" transform="translate(209,204)"/>
<path d="M0 0 C0.66 0.33 1.32 0.66 2 1 C0.02 3.31 -1.96 5.62 -4 8 C-4.66 7.67 -5.32 7.34 -6 7 C-5.8125 5.1875 -5.8125 5.1875 -5 3 C-2.5625 1.1875 -2.5625 1.1875 0 0 Z " fill="#E8E8E8" transform="translate(162,291)"/>
<path d="M0 0 C0.66 0 1.32 0 2 0 C2 0.66 2 1.32 2 2 C2.66 2 3.32 2 4 2 C3.34 3.65 2.68 5.3 2 7 C1.34 7 0.68 7 0 7 C-0.38133299 5.0085944 -0.71325582 3.00720923 -1 1 C-0.67 0.67 -0.34 0.34 0 0 Z " fill="#333333" transform="translate(420,202)"/>
<path d="M0 0 C5.53846154 0.61538462 5.53846154 0.61538462 7.875 2.5625 C8.431875 3.2740625 8.431875 3.2740625 9 4 C7.824375 3.9690625 7.824375 3.9690625 6.625 3.9375 C4.01885039 3.81315937 4.01885039 3.81315937 2 5 C2 4.01 2 3.02 2 2 C1.34 1.34 0.68 0.68 0 0 Z M0 5 C2 6 2 6 2 6 Z " fill="#272727" transform="translate(132,573)"/>
<path d="M0 0 C0.66 0.33 1.32 0.66 2 1 C1.67 2.65 1.34 4.3 1 6 C0.01 6.33 -0.98 6.66 -2 7 C-2 6.34 -2 5.68 -2 5 C-2.66 5 -3.32 5 -4 5 C-2.93453047 2.86906094 -1.70840281 1.63412443 0 0 Z " fill="#343434" transform="translate(197,552)"/>
<path d="M0 0 C1.32 0.33 2.64 0.66 4 1 C3.01 1.33 2.02 1.66 1 2 C0.67 1.34 0.34 0.68 0 0 Z M-4 1 C-2.35 1.33 -0.7 1.66 1 2 C-0.32 3.32 -1.64 4.64 -3 6 C-3.99 5.67 -4.98 5.34 -6 5 C-5.34 5 -4.68 5 -4 5 C-4 3.68 -4 2.36 -4 1 Z " fill="#222222" transform="translate(142,457)"/>
<path d="M0 0 C0.33 0.66 0.66 1.32 1 2 C1.66 2 2.32 2 3 2 C3.33 1.34 3.66 0.68 4 0 C4.75 1.75 4.75 1.75 5 4 C3.0625 6.25 3.0625 6.25 1 8 C0.17361624 5.10765685 0 3.11257569 0 0 Z " fill="#383838" transform="translate(442,451)"/>
<path d="M0 0 C0.66 0.99 1.32 1.98 2 3 C-0.97 5.475 -0.97 5.475 -4 8 C-4 4.09161134 -2.49432124 2.88405893 0 0 Z " fill="#EFEFEF" transform="translate(125,272)"/>
<path d="M0 0 C0.66 0 1.32 0 2 0 C2 0.66 2 1.32 2 2 C2.66 2.33 3.32 2.66 4 3 C4 4.32 4 5.64 4 7 C2.68 6.67 1.36 6.34 0 6 C0 4.02 0 2.04 0 0 Z " fill="#252525" transform="translate(179,153)"/>
<path d="M0 0 C0.99 0.33 1.98 0.66 3 1 C1.63016497 4.16115776 1.0109362 4.9927092 -2 7 C-2.33 6.01 -2.66 5.02 -3 4 C-2.34 4 -1.68 4 -1 4 C-1.33 3.01 -1.66 2.02 -2 1 C-1.34 0.67 -0.68 0.34 0 0 Z " fill="#2E2E2E" transform="translate(177,88)"/>
<path d="M0 0 C2.38564077 0.57584432 4.66682784 1.22227595 7 2 C6.67 2.99 6.34 3.98 6 5 C3.69 4.34 1.38 3.68 -1 3 C-0.67 2.01 -0.34 1.02 0 0 Z " fill="#353535" transform="translate(355,47)"/>
<path d="M0 0 C-0.66 1.65 -1.32 3.3 -2 5 C-1.34 5.33 -0.68 5.66 0 6 C-0.99 6 -1.98 6 -3 6 C-3.66 5.34 -4.32 4.68 -5 4 C-5.66 3.67 -6.32 3.34 -7 3 C-3.375 0 -3.375 0 0 0 Z " fill="#404040" transform="translate(120,509)"/>
<path d="M0 0 C0.66 0.33 1.32 0.66 2 1 C1.67 1.33 1.34 1.66 1 2 C1.99 2.66 2.98 3.32 4 4 C3.01 4.495 3.01 4.495 2 5 C2.33 5.99 2.66 6.98 3 8 C2.01 7.67 1.02 7.34 0 7 C-1.1875 4.4375 -1.1875 4.4375 -2 2 C-1.34 1.34 -0.68 0.68 0 0 Z " fill="#242424" transform="translate(130,453)"/>
<path d="M0 0 C2 1 2 1 2.8515625 3.06640625 C3.10679687 3.89011719 3.36203125 4.71382813 3.625 5.5625 C3.88539063 6.38878906 4.14578125 7.21507812 4.4140625 8.06640625 C4.60742188 8.70449219 4.80078125 9.34257812 5 10 C2.525 9.01 2.525 9.01 0 8 C0 5.36 0 2.72 0 0 Z " fill="#D1D1D1" transform="translate(137,409)"/>
<path d="M0 0 C1.5625 1.8125 1.5625 1.8125 3 4 C2 7 2 7 0 10 C-0.19412181 8.52168779 -0.38012131 7.04230684 -0.5625 5.5625 C-0.66691406 4.73878906 -0.77132812 3.91507812 -0.87890625 3.06640625 C-0.91886719 2.38449219 -0.95882812 1.70257813 -1 1 C-0.67 0.67 -0.34 0.34 0 0 Z " fill="#313131" transform="translate(83,388)"/>
<path d="M0 0 C4.875 3.625 4.875 3.625 6 7 C3 7 3 7 1.61328125 5.6875 C0.40885417 4.125 -0.79557292 2.5625 -2 1 C-1.34 0.67 -0.68 0.34 0 0 Z " fill="#404040" transform="translate(218,371)"/>
<path d="M0 0 C0.33 0.99 0.66 1.98 1 3 C1.99 3.33 2.98 3.66 4 4 C4.33 4.99 4.66 5.98 5 7 C4.01 7 3.02 7 2 7 C-0.1875 4.5 -0.1875 4.5 -2 2 C-1.34 2 -0.68 2 0 2 C0 1.34 0 0.68 0 0 Z " fill="#373737" transform="translate(332,288)"/>
<path d="M0 0 C0.66 0.66 1.32 1.32 2 2 C0.71349294 2.69710731 -0.57940665 3.38242876 -1.875 4.0625 C-2.95394531 4.63677734 -2.95394531 4.63677734 -4.0546875 5.22265625 C-4.69664062 5.47917969 -5.33859375 5.73570312 -6 6 C-6.66 5.67 -7.32 5.34 -8 5 C-5.59563974 1.39345961 -4.05320393 1.14547068 0 0 Z " fill="#3E3E3E" transform="translate(384,240)"/>
<path d="M0 0 C0.66 0.66 1.32 1.32 2 2 C2.99 2.33 3.98 2.66 5 3 C4.34 4.98 3.68 6.96 3 9 C0.9375 7.3125 0.9375 7.3125 -1 5 C-0.75 2.25 -0.75 2.25 0 0 Z " fill="#424242" transform="translate(322,198)"/>
<path d="M0 0 C0.99 0.99 1.98 1.98 3 3 C2.34 4.32 1.68 5.64 1 7 C-0.65 6.67 -2.3 6.34 -4 6 C-2.68 4.02 -1.36 2.04 0 0 Z " fill="#333333" transform="translate(150,129)"/>
<path d="M0 0 C0.33 0.66 0.66 1.32 1 2 C0.22265625 3.9453125 0.22265625 3.9453125 -0.9375 6.125 C-1.31777344 6.84945312 -1.69804688 7.57390625 -2.08984375 8.3203125 C-2.39019531 8.87460937 -2.69054687 9.42890625 -3 10 C-3.66 10 -4.32 10 -5 10 C-3.84414715 6.08788267 -2.64465038 3.1254959 0 0 Z " fill="#4D4D4D" transform="translate(108,516)"/>
<path d="M0 0 C0.66 0.99 1.32 1.98 2 3 C-1.81489674 4.46726798 -4.29011622 3.43336419 -8 2 C-4.79191085 -0.1387261 -3.72301503 -0.47730962 0 0 Z " fill="#424242" transform="translate(206,361)"/>
<path d="M0 0 C0.66 0.33 1.32 0.66 2 1 C1.67 2.32 1.34 3.64 1 5 C-2.75 6.125 -2.75 6.125 -5 5 C-3.35 3.35 -1.7 1.7 0 0 Z " fill="#474747" transform="translate(134,267)"/>
<path d="M0 0 C0.66 0 1.32 0 2 0 C1.67 2.97 1.34 5.94 1 9 C0.34 9 -0.32 9 -1 9 C-0.67 6.03 -0.34 3.06 0 0 Z " fill="#3C3C3C" transform="translate(236,179)"/>
<path d="M0 0 C2.18975773 3.28463659 2.99806563 6.20696275 4 10 C2.0625 9.25 2.0625 9.25 0 8 C-1.27677226 5.05360248 -0.96706319 3.00864103 0 0 Z " fill="#5D5D5D" transform="translate(429,108)"/>
<path d="M0 0 C0.66 0.99 1.32 1.98 2 3 C0.35 4.65 -1.3 6.3 -3 8 C-3.66 7.67 -4.32 7.34 -5 7 C-3.35 4.69 -1.7 2.38 0 0 Z " fill="#D5D5D5" transform="translate(235,438)"/>
<path d="M0 0 C0.66 0.99 1.32 1.98 2 3 C1.34 3 0.68 3 0 3 C-0.33 4.32 -0.66 5.64 -1 7 C-2.32 5.68 -3.64 4.36 -5 3 C-4.01 3 -3.02 3 -2 3 C-1.67 2.34 -1.34 1.68 -1 1 C-0.67 0.67 -0.34 0.34 0 0 Z " fill="#424242" transform="translate(149,418)"/>
<path d="M0 0 C0.33 0.66 0.66 1.32 1 2 C1.99 2.33 2.98 2.66 4 3 C3.67 3.99 3.34 4.98 3 6 C1 6 1 6 -0.625 4.625 C-2 3 -2 3 -2 1 C-1.34 0.67 -0.68 0.34 0 0 Z " fill="#262626" transform="translate(143,413)"/>
<path d="M0 0 C0.66 0.33 1.32 0.66 2 1 C1.67 2.32 1.34 3.64 1 5 C-0.32 5.33 -1.64 5.66 -3 6 C-3 3 -3 3 -1.5 1.3125 C-0.7575 0.6628125 -0.7575 0.6628125 0 0 Z " fill="#3E3E3E" transform="translate(147,256)"/>
<path d="M0 0 C0.66 0.33 1.32 0.66 2 1 C0.875 3 0.875 3 -1 5 C-4.1875 5.25 -4.1875 5.25 -7 5 C-2.25 1.125 -2.25 1.125 0 0 Z " fill="#DADADA" transform="translate(391,238)"/>
<path d="M0 0 C0.99 0.33 1.98 0.66 3 1 C3.33 1.99 3.66 2.98 4 4 C2.68 4.99 1.36 5.98 0 7 C-0.66 6.34 -1.32 5.68 -2 5 C-1.34 5 -0.68 5 0 5 C0 3.35 0 1.7 0 0 Z " fill="#333333" transform="translate(403,223)"/>
<path d="M0 0 C0.99 0.33 1.98 0.66 3 1 C1.35 2.65 -0.3 4.3 -2 6 C-2.66 5.34 -3.32 4.68 -4 4 C-2.68 2.68 -1.36 1.36 0 0 Z " fill="#EFEFEF" transform="translate(200,211)"/>
<path d="M0 0 C-0.75 2.4375 -0.75 2.4375 -2 5 C-4.125 5.8125 -4.125 5.8125 -6 6 C-6 5.01 -6 4.02 -6 3 C-2.66666667 0 -2.66666667 0 0 0 Z " fill="#DADADA" transform="translate(186,87)"/>
<path d="M0 0 C2.475 0.495 2.475 0.495 5 1 C5 1.66 5 2.32 5 3 C3.35 3.66 1.7 4.32 0 5 C0 3.35 0 1.7 0 0 Z " fill="#2E2E2E" transform="translate(178,572)"/>
<path d="M0 0 C2.46800047 1.15173355 4.04783565 2.04783565 6 4 C5.67 4.66 5.34 5.32 5 6 C3.0625 5.25 3.0625 5.25 1 4 C0.25 1.875 0.25 1.875 0 0 Z " fill="#404040" transform="translate(139,509)"/>
<path d="M0 0 C0.66 0.33 1.32 0.66 2 1 C0.3125 3.0625 0.3125 3.0625 -2 5 C-4.75 4.75 -4.75 4.75 -7 4 C-4.61426621 2.10786631 -2.92824652 0.97608217 0 0 Z " fill="#C7C7C7" transform="translate(400,488)"/>
<path d="M0 0 C3.96 1.98 3.96 1.98 8 4 C7.01 4.66 6.02 5.32 5 6 C4.01 5.34 3.02 4.68 2 4 C2 3.34 2 2.68 2 2 C1.34 2 0.68 2 0 2 C0 1.34 0 0.68 0 0 Z " fill="#3D3D3D" transform="translate(127,448)"/>
<path d="M0 0 C0.99 0.33 1.98 0.66 3 1 C4.1875 3.5625 4.1875 3.5625 5 6 C4.01 6 3.02 6 2 6 C1.34 5.34 0.68 4.68 0 4 C0 2.68 0 1.36 0 0 Z " fill="#3F3F3F" transform="translate(236,354)"/>
<path d="M0 0 C0.66 0 1.32 0 2 0 C2 0.66 2 1.32 2 2 C2.66 2.33 3.32 2.66 4 3 C1.525 4.485 1.525 4.485 -1 6 C-1.33 5.01 -1.66 4.02 -2 3 C-1.34 3 -0.68 3 0 3 C0 2.01 0 1.02 0 0 Z " fill="#E1E1E1" transform="translate(140,257)"/>
<path d="M0 0 C0.66 0.66 1.32 1.32 2 2 C1.625 5.125 1.625 5.125 1 8 C0.01 7.01 -0.98 6.02 -2 5 C-1.34 3.35 -0.68 1.7 0 0 Z " fill="#232323" transform="translate(219,230)"/>
<path d="M0 0 C0.66 1.32 1.32 2.64 2 4 C-0.97 6.475 -0.97 6.475 -4 9 C-3.34 7.02 -2.68 5.04 -2 3 C-1.34 3 -0.68 3 0 3 C0 2.01 0 1.02 0 0 Z " fill="#444444" transform="translate(316,213)"/>
<path d="M0 0 C2.86724686 0.57344937 3.8614515 0.8614515 6 3 C4.02 3.33 2.04 3.66 0 4 C0 2.68 0 1.36 0 0 Z " fill="#313131" transform="translate(385,61)"/>
</svg>
